# xmcd
#
# Track frame offsets:
#	150
#	12759
#	23744
#	37317
#	48225
#	61312
#	74280
#	84272
#	97427
#	106841
#	119985
#	131697
#	144440
#	157873
#	174776
#	186907
#	199090
#	208749
#	220109
#	231688
#	242334
#	254816
#	268289
#
# Disc length: 3767 seconds
#
# Revision: 2
# Processed by: cddbd v1.4b41PL2 Copyright (c) Steve Scherf et al.
# Submitted via: EZCDDA 4.3.2
#
DISCID=5a0eb517
DTITLE=Jackie Wilson - Whispers - Higher And Higher
DYEAR=1900
DGENRE=
TTITLE0=I don't want to lose you
TTITLE1=My heart is calling
TTITLE2=Who am I
TTITLE3=Whispers (Gettin' louder)
TTITLE4=The fairest of them all
TTITLE5=(Too much) Sweet loving
TTITLE6=I can do better
TTITLE7=Just be sincere
TTITLE8=Only your love can save me
TTITLE9=To make a big man cry
TTITLE10=I've gotta talk to you
TTITLE11=Tears will tell it all
TTITLE12=(Your love keeps lifting me) Higher and higher
TTITLE13=I don't need you around
TTITLE14=I've lost you
TTITLE15=Those heartaches
TTITLE16=Soulville
TTITLE17=Open the door to your heart
TTITLE18=I'm the one to do it
TTITLE19=You can count on me
TTITLE20=I need your loving
TTITLE21=Somebody up there likes you
TTITLE22=When will our day come
EXTD=
EXTT0=
EXTT1=
EXTT2=
EXTT3=
EXTT4=
EXTT5=
EXTT6=
EXTT7=
EXTT8=
EXTT9=
EXTT10=
EXTT11=
EXTT12=
EXTT13=
EXTT14=
EXTT15=
EXTT16=
EXTT17=
EXTT18=
EXTT19=
EXTT20=
EXTT21=
EXTT22=
PLAYORDER=
